# xmcd
#
# Track frame offsets: 
#        150
#        24903
#        53039
#        71339
#        84420
#        111905
#        123379
#        141921
#        181382
#        211288
#        227721
#
# Disc length: 3742 seconds
#
# Revision: 0
# Processed by: cddbd v1.5.2PL0 Copyright (c) Steve Scherf et al.
# Submitted via: ExactAudioCopyFreeDBPlugin 1.0
#
DISCID=910e9c0b
DTITLE=FOSSEN and STRUIJK BAND - CLUBBING
DYEAR=2012
DGENRE=Blues
TTITLE0=That will never do
TTITLE1=Bad Avenue
TTITLE2=Gotta love Somebody
TTITLE3=Kiddeo
TTITLE4=Ain't gonna wory about tomorrow
TTITLE5=Can't be Satisfied
TTITLE6=I'm going down to Clarksdale
TTITLE7=Rosalie
TTITLE8=Back to School
TTITLE9=If it is too late
TTITLE10=Sinner's Prayer
EXTD=
EXTT0=
EXTT1=
EXTT2=
EXTT3=
EXTT4=
EXTT5=
EXTT6=
EXTT7=
EXTT8=
EXTT9=
EXTT10=
PLAYORDER=
